# xmcd
#
# Track frame offsets: 
#        150
#        15178
#        31243
#        42753
#        55348
#        69017
#        84415
#        97437
#        109612
#        124155
#        138824
#        151588
#        164428
#        177635
#        191002
#        203092
#        213696
#        226642
#        240710
#        251321
#        264585
#        278360
#        290178
#        305356
#
# Disc length: 4227 seconds
#
# Revision: 0
# Processed by: cddbd v1.5.2PL0 Copyright (c) Steve Scherf et al.
# Submitted via: ExactAudioCopy v0.99pb5
#
DISCID=43108118
DTITLE=Ray Charles - Black Jack CD2
DYEAR=2008
DGENRE=Blues
TTITLE0=I'm Wondering And Wondering
TTITLE1=Let Me Hear You Call My Name
TTITLE2=Back Home
TTITLE3=Jumpin' In The Morning
TTITLE4=The Midnight Hour
TTITLE5=Sinners' Prayer
TTITLE6=Heartbreaker
TTITLE7=Mess Around
TTITLE8=Losing Hand
TTITLE9=Funny But I Still Love You
TTITLE10=I Wonder Who
TTITLE11=Feelin' Sad
TTITLE12=Ray's Blues
TTITLE13=Don't You Know
TTITLE14=Nobody Cares
TTITLE15=Black Jack
TTITLE16=I Got A Woman
TTITLE17=Come Back Baby
TTITLE18=A Bit Of Soul
TTITLE19=Hard Times
TTITLE20=A Fool For You
TTITLE21=Hallelujah I Love Her So
TTITLE22=Drown In My Own Tears
TTITLE23=What Would I Do Without You
EXTD=
EXTT0=
EXTT1=
EXTT2=
EXTT3=
EXTT4=
EXTT5=
EXTT6=
EXTT7=
EXTT8=
EXTT9=
EXTT10=
EXTT11=
EXTT12=
EXTT13=
EXTT14=
EXTT15=
EXTT16=
EXTT17=
EXTT18=
EXTT19=
EXTT20=
EXTT21=
EXTT22=
EXTT23=
PLAYORDER=
